<svg width="53" height="56" viewBox="0 0 53 56" fill="none" xmlns="http://www.w3.org/2000/svg">
<path d="M5.57872 17.4556C5.12099 17.4556 4.66525 17.2592 4.34943 16.8786L0.369715 12.0945C-0.19596 11.4154 -0.104013 10.4036 0.573598 9.83668C1.25321 9.26972 2.26063 9.36188 2.8263 10.041L6.80602 14.8271C7.37169 15.5063 7.27975 16.518 6.60214 17.0849C6.30231 17.3354 5.94052 17.4556 5.57872 17.4556Z" fill="black"/>
<path d="M26.3968 9.47603H26.3948C25.5113 9.47603 24.7977 8.75481 24.7977 7.87132L24.8097 1.60071C24.8097 0.717213 25.5273 0 26.4088 0H26.4108C27.2943 0 28.0079 0.72122 28.0079 1.60471L27.9959 7.87532C27.9959 8.75882 27.2783 9.47603 26.3968 9.47603Z" fill="black"/>
<path d="M47.1968 17.5236C46.835 17.5236 46.4732 17.4014 46.1734 17.153C45.4958 16.586 45.4038 15.5763 45.9695 14.8952L49.9492 10.1091C50.5149 9.42993 51.5223 9.33778 52.2019 9.90474C52.8795 10.4717 52.9715 11.4814 52.4058 12.1626L48.4261 16.9487C48.1103 17.3293 47.6545 17.5256 47.1968 17.5256V17.5236Z" fill="black"/>
<path d="M50.8547 25.1465C48.5681 22.2036 40.0589 12.6133 26.3928 12.6133C12.7266 12.6133 4.20954 22.2096 1.92685 25.1506C1.07734 26.3045 1.07734 27.8631 1.93285 29.0231C3.10218 30.5317 5.91656 33.7972 10.2321 36.6159V45.1624C10.2321 50.7819 14.7995 55.3516 20.4042 55.3516C26.009 55.3516 30.5784 50.7799 30.5784 45.1624V41.2478C41.8039 39.589 48.8159 31.6455 50.8567 29.0171C51.7003 27.9232 51.6983 26.2965 50.8547 25.1465ZM11.1216 32.4108C11.0136 32.6312 10.9177 32.8776 10.8317 33.1381C7.84145 30.9644 5.77664 28.6545 4.69526 27.2982L4.54935 27.1159L4.69126 26.9276C5.4968 25.8738 8.51907 22.2116 13.5622 19.3127L14.5616 18.7397L13.9699 19.7294C12.6327 21.9612 11.9251 24.5135 11.9251 27.1119C11.9251 28.348 12.085 29.576 12.4008 30.762C11.9031 31.2489 11.4734 31.8018 11.1216 32.4108ZM31.7757 36.9165V37.5355C31.3759 37.7739 30.9782 37.9903 30.5784 38.1846V36.7522C30.5784 35.9769 29.7569 35.3458 28.9833 35.3458C28.2078 35.3478 27.3862 35.9769 27.3862 36.7522V45.1624C27.3862 49.2313 24.264 52.5409 20.2064 52.5409C16.1487 52.5409 13.0245 49.2313 13.0245 45.1624V36.4256C13.0245 35.8366 13.1164 35.2717 13.2903 34.7488C13.3823 34.4583 13.5022 34.1798 13.6441 33.9174C14.1978 32.8916 15.0893 32.0923 16.1907 31.6656C16.7623 31.4432 17.39 31.323 18.0556 31.323C18.9131 31.323 19.6447 31.5774 20.3663 32.0182C19.7246 33.0479 19.2209 34.2479 19.063 35.5501C19.027 35.8326 19.009 36.1211 19.009 36.4136V41.6725C19.009 42.4478 19.6307 43.0769 20.4042 43.0769C21.1778 43.0769 21.8014 42.4478 21.8014 41.6725V36.4136C21.8014 36.3034 21.8054 36.1952 21.8114 36.0871C21.8154 36.0149 21.8194 35.9408 21.8274 35.8687C21.8334 35.7966 21.8414 35.7244 21.8514 35.6543C21.8774 35.444 21.9174 35.2396 21.9673 35.0393C21.9813 34.9832 21.9953 34.9271 22.0133 34.871C22.0193 34.847 22.0273 34.8209 22.0353 34.7949C22.0533 34.7328 22.0733 34.6707 22.0933 34.6086C22.0953 34.6025 22.0973 34.5965 22.1013 34.5885C22.1213 34.5284 22.1432 34.4703 22.1652 34.4122C22.1972 34.3321 22.2292 34.2519 22.2652 34.1718C22.2832 34.1317 22.3011 34.0917 22.3211 34.0516C22.3391 34.0115 22.3571 33.9735 22.3791 33.9334C22.4031 33.8853 22.4271 33.8372 22.4551 33.7892C22.481 33.7391 22.507 33.691 22.537 33.6429C22.545 33.6309 22.553 33.6169 22.561 33.6049C22.565 33.5948 22.571 33.5868 22.577 33.5788C22.631 33.4867 22.6889 33.3985 22.7509 33.3124C22.8049 33.2322 22.8628 33.1541 22.9248 33.078C22.9968 32.9858 23.0727 32.8977 23.1527 32.8115C23.1986 32.7594 23.2486 32.7073 23.3006 32.6572C23.3086 32.6472 23.3186 32.6372 23.3286 32.6272C23.3825 32.5731 23.4385 32.521 23.4945 32.4729C23.5125 32.4549 23.5284 32.4389 23.5464 32.4269C23.6124 32.3668 23.6784 32.3127 23.7463 32.2606C23.8862 32.1504 24.0322 32.0482 24.1841 31.9541C24.1881 31.9521 24.1921 31.9501 24.1961 31.946C24.226 31.928 24.254 31.912 24.284 31.896C24.344 31.8579 24.4039 31.8258 24.4659 31.7938C24.7258 31.6536 25.0016 31.5394 25.2874 31.4512C25.3134 31.4432 25.3394 31.4352 25.3654 31.4272C25.4354 31.4071 25.5033 31.3871 25.5753 31.3711C25.6392 31.355 25.7052 31.339 25.7712 31.327C25.8531 31.309 25.9351 31.2949 26.019 31.2829C26.101 31.2689 26.1849 31.2589 26.2709 31.2509C26.3388 31.2429 26.4068 31.2389 26.4768 31.2348H26.4788C26.5107 31.2328 26.5427 31.2308 26.5767 31.2288C26.6467 31.2268 26.7166 31.2248 26.7886 31.2248C26.8845 31.2248 26.9785 31.2268 27.0744 31.2328C27.1524 31.2368 27.2323 31.2429 27.3103 31.2509C27.3622 31.2569 27.4142 31.2629 27.4642 31.2709C27.5142 31.2749 27.5641 31.2829 27.6141 31.2929C27.6281 31.2929 27.6421 31.2969 27.6561 31.301C27.728 31.311 27.798 31.325 27.868 31.341C27.8959 31.345 27.9239 31.353 27.9519 31.3611C28.0039 31.3711 28.0558 31.3831 28.1058 31.3991C28.1458 31.4091 28.1838 31.4192 28.2237 31.4332C28.2897 31.4512 28.3557 31.4712 28.4196 31.4953C28.4936 31.5193 28.5676 31.5474 28.6395 31.5774C28.6975 31.5995 28.7554 31.6235 28.8114 31.6495C28.8554 31.6676 28.9014 31.6876 28.9433 31.7096C29.1012 31.7858 29.2552 31.8699 29.4031 31.9621C29.471 32.0041 29.537 32.0482 29.603 32.0943C29.6749 32.1424 29.7449 32.1945 29.8148 32.2506C29.8988 32.3147 29.9807 32.3828 30.0587 32.4549C30.1107 32.499 30.1626 32.5471 30.2126 32.5971C30.2766 32.6573 30.3385 32.7194 30.3965 32.7855C30.4565 32.8516 30.5164 32.9177 30.5724 32.9858C30.6184 33.0399 30.6603 33.094 30.7043 33.1501C30.7083 33.1561 30.7143 33.1641 30.7203 33.1701C30.7203 33.1701 30.7223 33.1741 30.7243 33.1761C30.7423 33.1982 30.7583 33.2222 30.7743 33.2442C30.7963 33.2723 30.8163 33.3023 30.8342 33.3304C30.8922 33.4125 30.9482 33.4967 31.0002 33.5828C31.0261 33.6269 31.0541 33.671 31.0781 33.715C31.1521 33.8453 31.222 33.9795 31.284 34.1157C31.316 34.1858 31.346 34.256 31.3739 34.3261C31.4019 34.3922 31.4259 34.4583 31.4499 34.5264C31.4539 34.5344 31.4559 34.5404 31.4579 34.5464C31.4779 34.6005 31.4959 34.6546 31.5119 34.7087C31.5219 34.7348 31.5299 34.7608 31.5378 34.7869C31.5538 34.8369 31.5678 34.887 31.5798 34.9371C31.5878 34.9652 31.5958 34.9952 31.6038 35.0233C31.6158 35.0713 31.6278 35.1214 31.6378 35.1715C31.6538 35.2416 31.6698 35.3137 31.6818 35.3839C31.6918 35.438 31.7018 35.492 31.7077 35.5461C31.7137 35.5782 31.7197 35.6122 31.7237 35.6443C31.7337 35.7224 31.7437 35.8006 31.7497 35.8787C31.7557 35.9408 31.7617 36.0009 31.7637 36.063C31.7677 36.1011 31.7697 36.1371 31.7697 36.1752C31.7737 36.2593 31.7757 36.3415 31.7757 36.4256V36.9165ZM34.4442 34.861C34.4342 34.8129 34.4262 34.7668 34.4162 34.7187C34.4102 34.6907 34.4042 34.6626 34.3982 34.6346C34.3782 34.5384 34.3562 34.4443 34.3342 34.3501C34.3342 34.3501 34.3322 34.3461 34.3322 34.3441C34.3063 34.2359 34.2783 34.1297 34.2483 34.0256C34.2443 34.0135 34.2403 34.0015 34.2383 33.9895C34.2103 33.8973 34.1823 33.8052 34.1503 33.713C34.0744 33.4846 33.9904 33.2603 33.8945 33.0439C33.8625 32.9678 33.8285 32.8916 33.7925 32.8175C33.7506 32.7254 33.7046 32.6352 33.6566 32.5451C33.6446 32.519 33.6306 32.493 33.6166 32.4669C33.5787 32.3948 33.5387 32.3247 33.4987 32.2546C33.4567 32.1784 33.4128 32.1043 33.3668 32.0322C33.3488 32.0021 33.3288 31.9701 33.3088 31.94C33.2629 31.8659 33.2129 31.7918 33.1629 31.7197C33.045 31.5474 32.921 31.3791 32.7891 31.2188C32.7731 31.1968 32.7551 31.1767 32.7372 31.1547C33.4707 29.9947 33.8945 28.6184 33.8945 27.1459C33.8945 22.9949 30.5364 19.6312 26.3968 19.6312C25.3374 19.6312 24.332 19.8516 23.4185 20.2483C23.8483 20.667 24.1141 21.252 24.1141 21.899C24.1141 23.1712 23.0847 24.2029 21.8154 24.2029C21.0579 24.2029 20.3902 23.8343 19.9705 23.2694C19.2889 24.4013 18.8971 25.7275 18.8971 27.1459C18.8971 27.6408 18.9451 28.1256 19.037 28.5944C18.6832 28.5403 18.3274 28.5122 17.9716 28.5122C17.0562 28.5122 16.1847 28.6605 15.3731 28.935C15.2732 28.3419 15.2232 27.7329 15.2232 27.1119C15.2232 20.9394 20.2343 15.9169 26.3928 15.9169C32.5513 15.9169 37.5604 20.9394 37.5604 27.1119C37.5604 30.117 36.3731 32.8476 34.4442 34.861ZM48.0883 27.3002C46.7031 29.0351 43.7109 32.3307 39.2214 34.9091L38.222 35.482L38.8157 34.4944C40.1509 32.2606 40.8585 29.7083 40.8585 27.1119C40.8585 24.5155 40.1509 21.9612 38.8157 19.7294L38.234 18.7577L39.2194 19.3127C44.1786 22.1014 47.2648 25.8477 48.0923 26.9276L48.2363 27.1159L48.0883 27.3002Z" fill="black"/>
</svg>
