<svg width="63" height="63" viewBox="0 0 63 63" fill="none" xmlns="http://www.w3.org/2000/svg">
<path d="M30.423 54.1974C31.016 54.7903 31.9815 54.7929 32.577 54.1974L54.1974 32.577C54.2607 32.5136 54.319 32.4401 54.3748 32.359L54.4026 32.321C54.4356 32.2729 54.4761 32.1918 54.5166 32.1056L54.5344 32.0626C54.5572 32.0043 54.5851 31.9155 54.6053 31.8193L54.6155 31.7787C54.6256 31.7281 54.6332 31.6698 54.6357 31.6064L54.5344 31.3074L54.613 31.2289C54.613 31.2289 54.6104 31.2111 54.6053 31.201C54.58 31.0844 54.5521 30.9957 54.5167 30.9146C54.471 30.8082 54.4254 30.7271 54.3773 30.6536C54.3139 30.5598 54.2531 30.4889 54.1898 30.4256L32.5694 8.80515C31.9764 8.21218 31.0109 8.20965 30.4154 8.80515C29.8199 9.40065 29.8225 10.3661 30.4154 10.9591L49.4384 29.9821L9.87198 29.9821C9.03068 29.9821 8.34902 30.6638 8.34902 31.5051C8.34902 31.9105 8.50867 32.2932 8.79501 32.5795C9.08136 32.8658 9.46399 33.0255 9.86944 33.0255L49.4384 33.0229L30.4154 52.046C29.8225 52.6389 29.8224 53.6069 30.4154 54.1999L30.423 54.1974Z" fill="black"/>
<path d="M53.7843 9.21566C41.4968 -3.0719 21.5032 -3.07188 9.21567 9.21567C-3.07188 21.5032 -3.0719 41.4968 9.21566 53.7843C21.5032 66.0719 41.4968 66.0719 53.7843 53.7843C66.0719 41.4968 66.0719 21.5032 53.7843 9.21566ZM10.9337 52.0662C-0.406087 40.7264 -0.406095 22.2736 10.9337 10.9337C22.2736 -0.406095 40.7264 -0.406089 52.0662 10.9337C63.4061 22.2736 63.4061 40.7264 52.0663 52.0663C40.7264 63.4061 22.2736 63.4061 10.9337 52.0662Z" fill="black"/>
</svg>
