<svg width="150" height="132" viewBox="0 0 150 132" fill="none" xmlns="http://www.w3.org/2000/svg">
<path d="M150 65.997C150 56.2795 142.784 47.1358 129.682 40.2427C134.663 24.8393 134.08 12.5731 128.03 5.70234C121.627 -1.57833 110.039 -1.89877 95.4098 4.80809C88.8425 7.81873 81.9737 12.0813 75 17.4841C68.0263 12.0888 61.1641 7.81873 54.5902 4.80809C39.9611 -1.89877 28.3733 -1.57833 21.9698 5.70234C15.9268 12.5731 15.3434 24.8393 20.3181 40.2427C7.2162 47.1284 0 56.2721 0 65.997C0 75.722 7.2162 84.8582 20.3181 91.7514C15.3369 107.155 15.9202 119.421 21.9698 126.292C25.2993 130.077 29.9921 132 35.9237 132C41.3506 132 47.6296 130.383 54.5902 127.186C61.1575 124.175 68.0197 119.913 75 114.51C81.9737 119.913 88.8425 124.175 95.4098 127.186C102.377 130.375 108.656 132 114.076 132C120.001 132 124.701 130.077 128.03 126.292C134.073 119.421 134.657 107.155 129.682 91.7514C142.784 84.8657 150 75.722 150 65.997ZM114.155 128.065H114.076C109.082 128.065 103.236 126.545 96.6945 123.549C90.6974 120.8 84.4184 116.947 78.0215 112.103C81.5018 109.256 84.9952 106.134 88.4034 102.81C102.731 101.551 115.905 98.2645 126.503 93.3163C128.561 99.7325 129.597 105.515 129.584 110.516C129.57 116.142 128.22 120.516 125.579 123.52C122.938 126.523 119.09 128.05 114.142 128.065H114.155ZM82.5964 103.205C80.0795 105.515 77.5233 107.714 75 109.741C72.47 107.706 69.9139 105.508 67.4036 103.205C72.4438 103.451 77.5562 103.451 82.5964 103.205ZM75 28.5951C72.4831 28.5951 69.927 28.6547 67.4036 28.7814C69.9139 26.4787 72.47 24.2803 75 22.2459C77.5233 24.2729 80.0795 26.4713 82.5964 28.7814C80.0664 28.6547 77.5168 28.5951 75 28.5951ZM114.076 3.92129H114.155C119.103 3.9362 122.951 5.47132 125.592 8.47451C128.233 11.4777 129.577 15.8521 129.597 21.4784C129.61 26.4787 128.574 32.2615 126.516 38.6777C115.918 33.7296 102.744 30.4507 88.4165 29.1838C85.0083 25.8676 81.5149 22.7378 78.0346 19.8911C84.4315 15.0472 90.7104 11.1945 96.7076 8.4447C103.249 5.44897 109.095 3.92875 114.089 3.92875L114.076 3.92129ZM57.2315 33.5731C55.3635 35.5181 53.5218 37.5301 51.7456 39.5496C45.27 46.9123 39.4564 54.6475 34.449 62.5542C30.3985 55.6536 27.1345 48.8424 24.7488 42.3293C33.8395 38.0741 45.0668 35.056 57.2315 33.5805V33.5731ZM24.7488 89.6573C27.1411 83.1368 30.405 76.333 34.449 69.4324C39.4498 77.3391 45.27 85.0743 51.7456 92.437C53.5218 94.4565 55.3701 96.4685 57.2315 98.4135C45.0603 96.938 33.8395 93.9125 24.7488 89.6648V89.6573ZM113.48 65.9896C108.433 74.1123 102.495 82.0786 95.8227 89.6573C92.9782 92.8915 90.0158 96.0363 87.027 98.9873C79.162 99.6208 70.8512 99.6208 62.9861 98.9873C59.9974 96.0363 57.0348 92.899 54.1903 89.6573C47.5181 82.0711 41.58 74.1123 36.5332 65.9896C41.58 57.8668 47.5181 49.9006 54.1903 42.3218C57.0348 39.0876 59.9908 35.9503 62.9861 32.9918C70.8512 32.3658 79.162 32.3658 87.027 32.9918C90.0158 35.9428 92.9717 39.0802 95.8227 42.3218C102.495 49.908 108.433 57.8668 113.48 65.9896ZM125.258 42.3218C122.866 48.8424 119.601 55.6461 115.558 62.5467C110.557 54.6401 104.736 46.9048 98.2609 39.5422C96.4847 37.5227 94.6364 35.5106 92.775 33.5656C104.946 35.0411 116.174 38.0667 125.258 42.3144V42.3218ZM92.775 98.4061C94.643 96.4611 96.4847 94.449 98.2609 92.4295C104.736 85.0669 110.55 77.3316 115.558 69.425C119.601 76.3256 122.872 83.1293 125.258 89.6499C116.167 93.8976 104.946 96.9231 92.775 98.3986V98.4061ZM61.5966 29.1764C47.2691 30.4358 34.0951 33.7221 23.4969 38.6703C21.4389 32.2541 20.4033 26.4713 20.4164 21.4709C20.4295 15.8446 21.7797 11.4702 24.4211 8.46706C27.0624 5.46387 30.9097 3.9362 35.8516 3.91384H35.9302C40.9245 3.91384 46.7709 5.43406 53.312 8.42979C59.3092 11.1796 65.5881 15.0323 71.985 19.8762C68.5047 22.7229 65.0114 25.8527 61.6032 29.1689L61.5966 29.1764ZM21.5896 43.8942C24.2113 51.0333 27.8292 58.463 32.332 65.9896C27.8292 73.5162 24.2113 80.9459 21.5896 88.085C16.143 85.201 11.8172 81.9445 8.71707 78.3973C5.23022 74.4104 3.46065 70.2373 3.46065 65.9896C3.46065 61.7419 5.23022 57.5687 8.71707 53.5819C11.8172 50.0347 16.1496 46.7781 21.5896 43.8942ZM23.4903 93.3089C34.0885 98.257 47.2625 101.536 61.59 102.803C65.0048 106.126 68.4982 109.249 71.9719 112.096C65.575 116.939 59.296 120.792 53.2989 123.542C46.7578 126.538 40.9114 128.058 35.9171 128.058H35.8385C30.89 128.043 27.0427 126.508 24.4014 123.505C21.76 120.501 20.4164 116.127 20.3967 110.501C20.3836 105.5 21.4192 99.7176 23.4772 93.3014L23.4903 93.3089ZM128.417 88.085C125.795 80.9459 122.177 73.5162 117.675 65.9896C122.184 58.463 125.795 51.0333 128.417 43.8942C133.857 46.7781 138.189 50.0347 141.289 53.5819C144.776 57.5687 146.546 61.7419 146.546 65.9896C146.546 70.2373 144.776 74.4104 141.289 78.3973C138.189 81.9445 133.857 85.201 128.417 88.085Z" fill="black"/>
</svg>
