<svg width="132" height="132" viewBox="0 0 132 132" fill="none" xmlns="http://www.w3.org/2000/svg">
<path d="M132 66C132 58.3783 124.513 52.2034 109.485 52.2034C105.063 52.2034 99.4698 53.1207 93.7797 54.4929C98.7688 51.4427 103.378 48.139 106.502 45.0068C117.129 34.3796 118.054 24.722 112.67 19.3302C107.285 13.9458 97.6203 14.8705 86.9932 25.4976C83.861 28.6298 80.5573 33.2312 77.5071 38.2203C78.8793 32.5302 79.7966 26.9444 79.7966 22.5146C79.7966 7.48744 73.6217 0 66 0C58.3783 0 52.2034 7.48744 52.2034 22.5146C52.2034 26.9369 53.1207 32.5302 54.4929 38.2203C51.4427 33.2312 48.139 28.6224 45.0068 25.4976C34.3797 14.8705 24.722 13.9458 19.3302 19.3302C13.9458 24.7146 14.8705 34.3796 25.4976 45.0068C28.6298 48.139 33.2312 51.4427 38.2203 54.4929C32.5302 53.1207 26.9444 52.2034 22.5146 52.2034C7.48745 52.2034 0 58.3783 0 66C0 73.6217 7.48745 79.7966 22.5146 79.7966C26.9369 79.7966 32.5302 78.8793 38.2203 77.5071C33.2312 80.5573 28.6224 83.861 25.4976 86.9932C14.8705 97.6203 13.9458 107.278 19.3302 112.67C24.7146 118.062 34.3797 117.129 45.0068 106.502C48.139 103.37 51.4427 98.7688 54.4929 93.7797C53.1207 99.4698 52.2034 105.056 52.2034 109.485C52.2034 124.513 58.3783 132 66 132C73.6217 132 79.7966 124.513 79.7966 109.485C79.7966 105.063 78.8793 99.4698 77.5071 93.7797C80.5573 98.7688 83.861 103.378 86.9932 106.502C97.6203 117.129 107.278 118.054 112.67 112.67C118.054 107.285 117.129 97.6203 106.502 86.9932C103.37 83.861 98.7688 80.5573 93.7797 77.5071C99.4698 78.8793 105.056 79.7966 109.485 79.7966C124.513 79.7966 132 73.6217 132 66Z" fill="black"/>
</svg>
