<svg width="132" height="132" viewBox="0 0 132 132" fill="none" xmlns="http://www.w3.org/2000/svg">
<path d="M66 132C48.3726 132 31.8005 125.14 19.3354 112.674C6.87023 100.207 0 83.6305 0 66C0 48.3694 6.87023 31.7931 19.3354 19.3264C31.8005 6.86736 48.3726 0 66 0C83.6273 0 100.199 6.85972 112.665 19.3264C125.13 31.7931 132 48.3694 132 66C132 83.6305 125.13 100.207 112.665 112.674C100.199 125.133 83.6273 132 66 132ZM66 4.17847C31.8916 4.17847 4.1449 31.9153 4.1449 66C4.1449 100.085 31.8916 127.822 66 127.822C100.108 127.822 127.855 100.085 127.855 66C127.855 31.9153 100.108 4.17847 66 4.17847Z" fill="black"/>
<path d="M65.59 132C54.5672 132 44.2885 124.995 36.6363 112.276C29.1815 99.8861 25.0745 83.4548 25.0745 66.0076C25.0745 48.5604 29.1815 32.1292 36.6363 19.7389C44.2885 7.02014 54.5672 0.0152777 65.59 0.0152777C76.6127 0.0152777 86.8916 7.02014 94.5437 19.7389C101.999 32.1292 106.105 48.5604 106.105 66.0076C106.105 83.4548 101.999 99.8861 94.5437 112.276C86.8916 124.995 76.6127 132 65.59 132ZM65.59 4.17847C56.0779 4.17847 47.0517 10.4729 40.1814 21.8931C33.1138 33.6417 29.2194 49.309 29.2194 66.0076C29.2194 82.7062 33.1138 98.366 40.1814 110.122C47.0517 121.542 56.0779 127.837 65.59 127.837C75.1021 127.837 84.1283 121.542 90.9986 110.122C98.0662 98.3736 101.961 82.7062 101.961 66.0076C101.961 49.309 98.0662 33.6493 90.9986 21.8931C84.1283 10.4729 75.1021 4.17847 65.59 4.17847Z" fill="black"/>
<path d="M65.9999 101.139C48.6155 101.139 32.2332 97.7549 19.8819 91.6132C7.05999 85.2347 0.00759145 76.5875 0.00759145 67.2604C0.00759145 57.9333 7.06758 49.2785 19.8819 42.9076C32.2332 36.766 48.6155 33.3819 65.9999 33.3819C83.3843 33.3819 99.7667 36.766 112.118 42.9076C124.94 49.2861 131.992 57.9333 131.992 67.2604C131.992 76.5875 124.932 85.2424 112.118 91.6132C99.7667 97.7549 83.3843 101.139 65.9999 101.139ZM65.9999 37.5451C49.238 37.5451 33.5086 40.7764 21.7115 46.6431C10.3851 52.2806 4.14489 59.5986 4.14489 67.2604C4.14489 74.9222 10.3851 82.2403 21.7115 87.8778C33.5086 93.7444 49.2304 96.9757 65.9999 96.9757C82.7694 96.9757 98.4913 93.7444 110.288 87.8778C121.615 82.2403 127.855 74.9222 127.855 67.2604C127.855 59.5986 121.615 52.2806 110.288 46.6431C98.4913 40.7764 82.7694 37.5451 65.9999 37.5451Z" fill="black"/>
<path d="M129.927 63.9146H2.07244V68.0854H129.927V63.9146Z" fill="black"/>
<path d="M68.0724 3.92639H63.9275V129.731H68.0724V3.92639Z" fill="black"/>
</svg>
