<svg width="132" height="132" viewBox="0 0 132 132" fill="none" xmlns="http://www.w3.org/2000/svg">
<path d="M1.76281e-05 66.033C-0.0263824 29.6561 29.6032 0.0220242 66.0352 1.76491e-05C102.362 -0.0263903 131.987 29.5857 132 65.9318C132.013 102.436 102.511 131.996 66.066 132C29.5944 132 0.0264176 102.476 1.76281e-05 66.033ZM36.5508 32.6974C36.102 32.5698 35.8864 32.5038 35.6664 32.4465C30.1928 31.0073 24.8776 29.128 19.8264 26.562C18.9376 26.1086 18.612 26.4916 18.1412 27.0725C11.1144 35.7651 6.72322 45.6373 5.00282 56.6758C4.63762 59.0217 4.50562 61.4072 4.26362 63.828H31.9264C32.2256 53.2692 33.5236 42.9217 36.5508 32.6974ZM95.5724 32.9395C98.3356 42.618 99.8668 52.565 99.9636 62.7144C99.9768 63.8896 100.544 63.9248 101.433 63.9248C109.74 63.9028 118.048 63.916 126.35 63.9116C126.79 63.9116 127.226 63.8676 127.89 63.8324C127.459 60.571 127.2 57.4725 126.628 54.4356C124.727 44.3169 120.459 35.2766 114.048 27.2222C113.309 26.2935 112.737 26.2011 111.76 26.7776C110.726 27.385 109.617 27.8912 108.491 28.3049C104.24 29.8674 99.9724 31.3682 95.5724 32.9439V32.9395ZM113.375 105.61C122.232 94.9409 127.054 82.4544 127.723 68.2469H100.03C99.9064 78.8277 98.4412 89.1488 95.59 99.0253C101.517 101.222 107.356 103.383 113.375 105.61ZM4.40002 68.2337C4.40002 68.665 4.36042 69.0303 4.40442 69.3824C4.77402 72.3665 5.00282 75.377 5.57482 78.3215C7.50202 88.2421 11.7964 97.0755 18.1104 104.95C18.722 105.711 19.1576 105.795 20.0508 105.385C22.7832 104.135 25.5464 102.938 28.358 101.891C30.9892 100.909 33.6952 100.143 36.5112 99.241C33.5148 89.1091 32.2212 78.7308 31.9132 68.2337H4.40002ZM91.4232 34.031C83.5604 34.8849 75.9396 35.7167 68.3056 36.5486V63.828H95.8012C95.5636 53.5553 94.2744 43.5467 91.4232 34.0354V34.031ZM40.5988 34.031C37.7828 43.5247 36.4188 53.5465 36.2692 63.7928H63.7604V36.5618C56.0164 35.7167 48.3956 34.8849 40.5988 34.0354V34.031ZM68.2572 95.7772C68.8512 95.8168 69.3924 95.8696 69.938 95.8872C76.4368 96.072 82.8784 96.785 89.2716 97.9558C91.3176 98.3299 91.322 98.3123 91.894 96.3097C94.2612 88.022 95.282 79.5275 95.7528 70.9493C95.8012 70.047 95.7616 69.1404 95.7616 68.2425H68.2616V95.7815L68.2572 95.7772ZM36.1636 68.2381C36.3528 71.1033 36.52 73.7837 36.7048 76.4686C37.1888 83.4666 38.4472 90.3283 40.3128 97.0931C40.6384 98.2771 41.1224 98.3607 42.1696 98.1274C44.11 97.6961 46.0768 97.322 48.0524 97.124C52.9848 96.6398 57.9304 96.2701 62.8716 95.8476C63.1752 95.8212 63.4788 95.7331 63.7428 95.6803V68.2381H36.1636ZM89.9888 29.5681C86.966 21.6457 83.3888 14.2823 76.9296 8.71463C74.4348 6.56239 71.6276 5.02633 68.2748 4.50257V31.9492C75.5524 31.7731 82.676 31.0733 89.9844 29.5681H89.9888ZM68.2528 127.519C71.1172 127.154 73.524 125.926 75.7328 124.284C80.3836 120.825 83.5956 116.195 86.1916 111.116C87.6084 108.352 88.7744 105.46 90.112 102.502C82.6892 101.01 75.5524 100.187 68.2528 100.187V127.524V127.519ZM63.7516 31.958V4.50257C60.2712 5.06154 57.4464 6.66362 54.9252 8.84667C50.05 13.0631 46.838 18.4504 44.2244 24.2381C43.4544 25.9458 42.79 27.7019 42.0288 29.5505C49.3064 31.0733 56.4256 31.7423 63.756 31.9492L63.7516 31.958ZM63.7912 100.183C56.4036 100.214 49.236 101.006 42.0772 102.489C43.9032 107.577 46.112 112.309 49.1304 116.626C52.1708 120.979 55.704 124.795 60.8124 126.762C61.732 127.115 62.7044 127.317 63.7912 127.625V100.178V100.183ZM110.26 23.1422C103.748 15.5851 87.6832 6.50517 80.63 6.24109C87.274 12.4602 91.1108 20.3209 94.292 28.8815C99.6468 26.9581 104.848 25.0875 110.26 23.1378V23.1422ZM51.5108 5.99462C39.952 8.92589 30.2016 14.476 21.67 23.1158C27.2624 25.114 32.494 26.9801 37.6904 28.8375C42.2195 18.9902 46.8248 11.3774 51.5064 5.99902L51.5108 5.99462ZM110.114 109.188C109.507 108.889 109.072 108.625 108.605 108.457C104.355 106.912 100.082 105.425 95.8452 103.836C94.4504 103.312 93.9664 103.748 93.4956 105.077C91.7532 110.029 89.4784 114.742 86.416 119.021C84.7308 121.375 82.786 123.549 80.8456 125.944C92.18 123.079 101.825 117.52 110.11 109.192L110.114 109.188ZM21.758 109.043C30.206 117.489 39.8288 123.07 51.4228 125.992C49.9708 124.368 48.7168 123.079 47.5948 121.688C43.472 116.587 40.5856 110.799 38.3724 104.659C38.0116 103.656 37.6112 103.374 36.5596 103.752C34.9536 104.329 33.2464 104.641 31.6448 105.227C28.4064 106.411 25.2076 107.705 21.7624 109.038L21.758 109.043Z" fill="black"/>
</svg>
