<svg width="118" height="132" viewBox="0 0 118 132" fill="none" xmlns="http://www.w3.org/2000/svg">
<path d="M113.871 89.6422C113.5 89.4319 113.12 89.2667 112.733 89.124L61.7052 66L112.733 42.876C113.12 42.7408 113.5 42.568 113.871 42.3578C117.179 40.4652 118.317 36.2745 116.405 33C114.494 29.7255 110.26 28.599 106.952 30.4916C106.581 30.7019 106.247 30.9422 105.936 31.205L60.1878 63.3864L65.4681 8.08102C65.544 7.68298 65.5896 7.26991 65.5896 6.84934C65.5896 3.06418 62.4942 0 58.6705 0C54.8468 0 51.7514 3.06418 51.7514 6.84934C51.7514 7.26991 51.7969 7.68298 51.8652 8.08102L57.1455 63.3864L11.3976 31.205C11.0866 30.9422 10.7452 30.7019 10.381 30.4916C7.07321 28.599 2.83983 29.7255 0.927979 33C-0.983873 36.2745 0.154132 40.4652 3.46194 42.3578C3.83369 42.568 4.21302 42.7333 4.59995 42.876L55.6282 66L4.59995 89.124C4.21302 89.2592 3.83369 89.4319 3.46194 89.6422C0.154132 91.5348 -0.983873 95.7255 0.927979 99C2.83983 102.274 7.07321 103.401 10.381 101.508C10.7528 101.298 11.0866 101.058 11.3976 100.795L57.1455 68.6136L51.8652 123.919C51.7893 124.317 51.7438 124.73 51.7438 125.151C51.7438 128.936 54.8392 132 58.6629 132C62.4866 132 65.582 128.936 65.582 125.151C65.582 124.73 65.5364 124.317 65.4681 123.919L60.1878 68.6136L105.936 100.795C106.247 101.058 106.588 101.298 106.952 101.508C110.26 103.401 114.494 102.274 116.405 99C118.317 95.7255 117.179 91.5348 113.871 89.6422Z" fill="black"/>
</svg>
