<svg width="132" height="132" viewBox="0 0 132 132" fill="none" xmlns="http://www.w3.org/2000/svg">
<path d="M130.225 68.6982L75.4013 64.7672L127.416 46.9929C128.404 46.6536 128.928 45.5768 128.596 44.5959C128.434 44.1165 128.094 43.733 127.637 43.5117C127.18 43.2905 126.671 43.2536 126.192 43.4232L74.5607 61.0722L115.802 25.3391C116.186 25.0072 116.414 24.55 116.451 24.0485C116.488 23.5469 116.326 23.0602 115.994 22.6767C115.662 22.2932 115.205 22.0645 114.704 22.0276C114.195 21.9834 113.708 22.153 113.332 22.4849L71.7882 58.4835L95.9963 9.12833C96.4535 8.19167 96.0701 7.05588 95.1336 6.59862C94.1971 6.14135 93.0616 6.52487 92.6044 7.46152L68.5732 56.4553L72.4739 2.02596C72.5477 0.986054 71.7661 0.0788979 70.7264 0.00514537C70.2249 -0.0317309 69.7383 0.130525 69.3549 0.462411C68.9714 0.794297 68.7428 1.25156 68.7059 1.75308L64.7757 56.5881L47.0049 4.56305C46.8427 4.08366 46.5035 3.70015 46.0463 3.47889C45.5965 3.25763 45.0803 3.22813 44.601 3.39039C44.1217 3.55264 43.7383 3.8919 43.5171 4.34917C43.2959 4.79906 43.259 5.31533 43.4286 5.79472L61.0741 57.4362L25.348 16.1864C24.6623 15.3973 23.4677 15.3162 22.6787 15.9947C21.8897 16.6806 21.8086 17.8754 22.487 18.6645L58.4711 60.2167L9.12572 36.0037C8.18925 35.5465 7.05368 35.93 6.5965 36.8666C6.13933 37.8033 6.52276 38.9391 7.45924 39.3964L56.4433 63.4323L2.02476 59.5308C0.985052 59.4644 0.0780714 60.2388 0.00433347 61.2787C-0.0472831 62.0531 0.365655 62.7685 1.05879 63.1152C1.27263 63.2184 1.50859 63.2848 1.7593 63.2995L56.5834 67.2306L4.56871 85.0049C4.08942 85.1672 3.70598 85.5064 3.48476 85.9637C3.26355 86.4136 3.22668 86.9298 3.39628 87.4092C3.55851 87.8886 3.8977 88.2721 4.35488 88.4934C4.62033 88.6188 4.90054 88.6852 5.18812 88.6852C5.39459 88.6852 5.60104 88.6483 5.80013 88.5819L57.4314 70.9329L16.1898 106.666C15.4008 107.345 15.3197 108.547 15.9981 109.336C16.1677 109.528 16.3668 109.682 16.5954 109.793C16.8608 109.926 17.1484 109.985 17.4286 109.985C17.871 109.985 18.3135 109.83 18.6674 109.52L60.2113 73.529L36.0032 122.884C35.546 123.821 35.9295 124.957 36.8659 125.414C37.1314 125.547 37.4116 125.606 37.6992 125.606C37.9056 125.606 38.1121 125.569 38.3112 125.502C38.7905 125.34 39.1739 125.001 39.3951 124.544L63.4263 75.5498L59.5256 129.979C59.474 130.754 59.8869 131.469 60.58 131.816C60.7939 131.919 61.0298 131.985 61.2805 132C61.3248 132 61.369 132 61.4133 132C62.394 132 63.2272 131.24 63.3009 130.245L67.2312 75.4097L85.002 127.435C85.1643 127.914 85.5034 128.298 85.9606 128.519C86.2261 128.652 86.5063 128.711 86.7939 128.711C87.0003 128.711 87.2068 128.674 87.4059 128.607C88.394 128.268 88.9175 127.191 88.5857 126.21L70.9402 74.5689L106.666 115.819C106.836 116.01 107.035 116.165 107.264 116.276C107.529 116.409 107.817 116.468 108.097 116.468C108.539 116.468 108.982 116.313 109.336 116.003C110.125 115.317 110.206 114.122 109.527 113.333L73.5358 71.7811L122.881 95.994C123.147 96.1194 123.427 96.1858 123.714 96.1858C123.921 96.1858 124.127 96.1489 124.326 96.0825C124.806 95.9203 125.189 95.581 125.41 95.1237C125.632 94.6665 125.668 94.1576 125.499 93.6782C125.337 93.1988 124.997 92.8153 124.54 92.594L75.5562 68.5581L129.975 72.4596C130.019 72.4596 130.071 72.4596 130.115 72.4596C130.572 72.4596 131 72.2973 131.346 71.995C131.73 71.6631 131.958 71.2058 131.995 70.7043C132.069 69.6644 131.287 68.7572 130.248 68.6835L130.225 68.6982Z" fill="black"/>
</svg>
