<svg width="118" height="132" viewBox="0 0 118 132" fill="none" xmlns="http://www.w3.org/2000/svg">
<path d="M116.844 51.2801L116.656 51.2952L116.844 51.2651C116.663 48.6113 116.43 45.9501 116.144 43.3642L116.053 42.5349C115.345 36.3756 114.359 30.6158 113.116 25.4139L113.011 24.9766C112.604 23.3105 112.175 21.6972 111.723 20.1743C109.924 14.0904 107.815 9.28048 105.443 5.8804C102.717 1.97521 99.6904 0 96.4525 0C93.2145 0 90.1874 1.98275 87.4616 5.8804C85.0896 9.28048 82.9737 14.0904 81.1815 20.1743C80.8276 21.3655 80.4887 22.6094 80.1649 23.8835L80.0596 24.3207C79.4496 26.7785 78.8848 29.402 78.3879 32.1311L78.3653 32.2442C78.2975 32.6362 78.2222 33.0283 78.1469 33.4655C77.9361 34.6718 77.7403 35.9082 77.5596 37.1596C77.537 37.0013 77.5144 36.843 77.4918 36.6922L77.4692 36.5414C76.5581 30.5253 75.3683 25.0143 73.9452 20.1743C73.4557 18.5082 72.9211 16.8949 72.3714 15.3871C70.9482 11.5196 69.3669 8.32303 67.6651 5.8804C64.9392 1.97521 61.9196 0 58.6742 0C55.4287 0 52.4092 1.98275 49.6833 5.8804C47.3113 9.28048 45.1954 14.0904 43.4033 20.1743C41.9198 25.2028 40.7 30.9098 39.7813 37.1521C38.8626 30.9098 37.6502 25.2028 36.1593 20.1743C34.3596 14.0904 32.2512 9.28048 29.8793 5.8804C27.1534 1.97521 24.1338 0 20.8884 0C17.6429 0 14.6234 1.98275 11.8975 5.8804C9.52551 9.28048 7.40955 14.0904 5.61739 20.1743C1.99544 32.4402 0 48.7169 0 65.9962C0 68.3484 0.0376227 70.7458 0.112923 73.113L0.127998 73.5201C0.173178 74.8093 0.225905 76.0834 0.286146 77.3047L0.308712 77.6666C0.933707 89.3821 2.52256 100.291 4.887 109.225L4.93218 109.398C5.15055 110.212 5.37647 111.034 5.6099 111.818C6.21984 113.884 6.88246 115.836 7.5677 117.623L7.64298 117.819C8.93815 121.136 10.3689 123.926 11.8899 126.105C13.0872 127.823 14.3674 129.188 15.6851 130.153L15.7228 130.183C15.9035 130.319 16.0917 130.439 16.2724 130.56C17.7483 131.51 19.2995 131.985 20.8733 131.985C24.1112 131.985 27.1383 130.002 29.8642 126.105C30.5569 125.109 31.2497 123.963 31.9048 122.712L32.0404 122.576V122.501L32.1307 122.275C33.5991 119.387 34.947 115.867 36.1443 111.818C36.5358 110.491 36.9198 109.066 37.2888 107.596C38.2677 103.661 39.096 99.3788 39.7662 94.8404C40.6849 101.083 41.8972 106.79 43.3882 111.826L43.5764 112.444C45.3309 118.241 47.3866 122.84 49.6682 126.12C52.3941 130.025 55.4137 132 58.6591 132C61.9046 132 64.9241 130.017 67.65 126.12C70.022 122.72 72.1379 117.91 73.9301 111.826C75.4135 106.79 76.6334 101.083 77.552 94.8404C77.6499 95.4887 77.7478 96.1371 77.8457 96.7628L77.8834 96.9814C77.9587 97.4564 78.0415 97.9238 78.1319 98.4591C78.9677 103.314 79.9918 107.815 81.174 111.826C82.9737 117.91 85.0821 122.72 87.4541 126.12C90.18 130.025 93.1995 132 96.445 132C99.6904 132 102.71 130.017 105.436 126.12C107.808 122.72 109.924 117.91 111.716 111.826C115.338 99.5522 117.333 83.2831 117.333 66.0038C117.333 61.0431 117.168 56.09 116.836 51.2877L116.844 51.2801ZM96.4525 128.004C90.2929 128.004 84.0203 113.311 81.2041 92.2696L81.1891 92.164C81.0611 91.199 80.9406 90.219 80.8201 89.2238L80.7222 88.3795C80.5038 86.4118 80.3156 84.3687 80.1574 82.3181L80.1198 81.8507C80.0294 80.6294 79.9466 79.4005 79.8788 78.1943L79.8562 77.7947C79.7885 76.5433 79.7282 75.2466 79.6831 73.8292C79.668 73.3844 79.6529 72.9396 79.6379 72.4948C79.5776 70.3236 79.5475 68.1373 79.5475 65.9962C79.5475 61.7744 79.668 57.5676 79.9014 53.4891V53.3684C80.0671 50.5866 80.2854 47.8197 80.5565 45.1509C80.6017 44.7438 80.6393 44.3443 80.6845 43.9447C80.7749 43.138 80.8652 42.3314 80.9631 41.5398C81.046 40.8613 81.1363 40.1903 81.2192 39.5269C81.3171 38.8031 81.4225 38.0794 81.5279 37.3707C81.6107 36.8204 81.6936 36.2776 81.7839 35.7348C84.8336 16.7441 90.7221 3.98058 96.445 3.98058C99.9163 3.98058 103.666 8.96385 106.731 17.6488C106.844 17.9729 106.957 18.3046 107.07 18.6364C108.538 23.009 109.788 28.1053 110.782 33.7746C110.873 34.2722 110.955 34.7773 111.038 35.29C111.189 36.2173 111.332 37.1596 111.475 38.1171C111.535 38.5242 111.588 38.9313 111.648 39.3459C112.19 43.3341 112.612 47.571 112.898 51.9285L112.921 52.2979C113.199 56.7384 113.342 61.3447 113.342 65.9887C113.342 83.3057 111.354 99.3713 107.748 111.223C104.555 121.724 100.33 127.997 96.445 127.997L96.4525 128.004ZM75.5641 65.9962C75.5641 66.7426 75.5641 67.4889 75.5491 68.2278V68.3032C75.534 69.5999 75.5114 70.9267 75.4737 72.231V72.4798C75.0746 86.1027 73.4331 98.5948 70.7147 108.614L70.6545 108.84C67.3714 120.835 62.891 127.997 58.6666 127.997C55.504 127.997 52.0251 123.737 49.1185 116.311L48.9679 115.934C44.3897 104 41.7692 85.8011 41.7692 65.9887C41.7692 48.6717 43.7571 32.6061 47.364 20.7548C50.5568 10.253 54.7811 3.98058 58.6666 3.98058C61.754 3.98058 65.0446 7.8707 67.9211 14.9347C68.0039 15.1458 68.0943 15.3569 68.1771 15.5755C69.1635 18.0936 70.0822 20.9508 70.903 24.072C70.9708 24.3434 71.0461 24.6223 71.1138 24.9012C72.5295 30.465 73.6289 36.7601 74.3819 43.6055L74.5701 45.3847C74.6906 46.5909 74.796 47.767 74.8939 48.9958V49.1014C74.9843 50.1644 75.0671 51.25 75.1349 52.3431L75.2027 53.4287C75.2478 54.2731 75.293 55.125 75.3382 55.9845L75.3834 56.9947C75.5039 59.95 75.5641 62.9806 75.5641 65.9811V65.9962ZM37.7783 65.9962C37.7783 84.8361 35.4816 101.859 31.31 113.922C31.0464 114.683 30.7753 115.429 30.4967 116.138C29.6609 118.294 28.7648 120.217 27.8386 121.837C27.7407 122.011 27.6428 122.177 27.545 122.335C25.3386 126.037 23.0269 127.997 20.8733 127.997C17.2287 127.997 13.3432 122.606 10.2032 113.213L10.158 113.077C9.92461 112.376 9.68364 111.622 9.45021 110.823L9.34478 110.461C7.98184 105.825 6.84482 100.525 5.97887 94.7273C5.88851 94.1468 5.80565 93.5663 5.72282 92.9707C5.58728 91.9982 5.45926 91.0106 5.33878 90.0003L5.30114 89.6762C4.42013 82.2276 3.97585 74.2514 3.97585 65.9811C3.97585 48.6716 5.96377 32.6061 9.57067 20.7473C12.7634 10.2455 16.9878 3.97304 20.8733 3.97304C24.7588 3.97304 28.9832 10.2455 32.1759 20.7473C35.7828 32.6061 37.7707 48.6641 37.7707 65.9811L37.7783 65.9962Z" fill="black"/>
</svg>
