<svg width="132" height="132" viewBox="0 0 132 132" fill="none" xmlns="http://www.w3.org/2000/svg">
<path d="M75.0519 12.7481C75.0519 21.7037 66.7259 65.6222 66.7259 65.6222C66.7259 65.6222 58.4 21.7037 58.4 12.7481C58.4 3.79259 62.1259 0 66.7259 0C71.3259 0 75.0519 3.78518 75.0519 12.7481Z" fill="black"/>
<path d="M47.2074 15.3555C51.6889 23.1111 66.437 65.3111 66.437 65.3111C66.437 65.3111 37.2667 31.4445 32.7852 23.6815C28.3037 15.9259 29.6444 10.7778 33.6222 8.48147C37.6074 6.18517 42.726 7.59999 47.2074 15.3555Z" fill="black"/>
<path d="M24.4074 31.5333C32.163 36.0148 66.0371 65.1852 66.0371 65.1852C66.0371 65.1852 23.8371 50.4371 16.0815 45.9556C8.32596 41.4741 6.91113 36.3555 9.20742 32.3704C11.5037 28.3852 16.6519 27.0519 24.4074 31.5333Z" fill="black"/>
<path d="M12.7482 56.9482C21.7037 56.9482 65.6222 65.2741 65.6222 65.2741C65.6222 65.2741 21.7037 73.6 12.7482 73.6C3.79261 73.6 0 69.8741 0 65.2741C0 60.6741 3.7852 56.9482 12.7482 56.9482Z" fill="black"/>
<path d="M15.3556 84.7852C23.1112 80.3037 65.3111 65.5556 65.3111 65.5556C65.3111 65.5556 31.4445 94.7259 23.6815 99.2074C15.926 103.689 10.7778 102.348 8.48151 98.3704C6.18521 94.3852 7.60005 89.2667 15.3556 84.7852Z" fill="black"/>
<path d="M31.5333 107.593C36.0148 99.8371 65.1852 65.963 65.1852 65.963C65.1852 65.963 50.4371 108.163 45.9556 115.919C41.4741 123.674 36.3556 125.089 32.3704 122.793C28.3852 120.496 27.0518 115.348 31.5333 107.593Z" fill="black"/>
<path d="M56.9482 119.252C56.9482 110.296 65.2741 66.3778 65.2741 66.3778C65.2741 66.3778 73.6 110.296 73.6 119.252C73.6 128.207 69.8741 132 65.2741 132C60.6741 132 56.9482 128.215 56.9482 119.252Z" fill="black"/>
<path d="M84.7852 116.644C80.3037 108.889 65.5556 66.6889 65.5556 66.6889C65.5556 66.6889 94.7259 100.556 99.2074 108.319C103.689 116.074 102.348 121.222 98.3704 123.519C94.3852 125.815 89.2667 124.4 84.7852 116.644Z" fill="black"/>
<path d="M107.593 100.467C99.8371 95.9852 65.963 66.8148 65.963 66.8148C65.963 66.8148 108.163 81.563 115.919 86.0445C123.674 90.5259 125.089 95.6445 122.793 99.6297C120.496 103.615 115.348 104.948 107.593 100.467Z" fill="black"/>
<path d="M119.252 75.0519C110.289 75.0519 66.3778 66.7259 66.3778 66.7259C66.3778 66.7259 110.296 58.4 119.252 58.4C128.207 58.4 132 62.1259 132 66.7259C132 71.3259 128.215 75.0519 119.252 75.0519Z" fill="black"/>
<path d="M116.644 47.2148C108.889 51.6963 66.6889 66.4444 66.6889 66.4444C66.6889 66.4444 100.556 37.2741 108.319 32.7926C116.074 28.3111 121.222 29.6518 123.519 33.6296C125.815 37.6148 124.4 42.7333 116.644 47.2148Z" fill="black"/>
<path d="M100.467 24.4074C95.9852 32.163 66.8148 66.037 66.8148 66.037C66.8148 66.037 81.563 23.837 86.0445 16.0815C90.5259 8.32592 95.6445 6.91111 99.6297 9.20741C103.615 11.5037 104.948 16.6518 100.467 24.4074Z" fill="black"/>
</svg>
